# xmcd
#
# Track frame offsets:
#	150
#	34680
#	88379
#	118430
#	169846
#	185803
#	218915
#	262128
#	307175
#
# Disc length: 4444 seconds
#
# Revision: 1
# Processed by: cddbd v1.5.2PL0 Copyright (c) Steve Scherf et al.
# Submitted via: audiograbber 1.83.01
#
DISCID=92115a09
DTITLE=Grateful Dead - 82-02-21 Pauley Pavilion, UCLA, Los Angeles CA
DYEAR=1900
DGENRE=
TTITLE0=I Know You Rider
TTITLE1=Estimated Prophet
TTITLE2=Eyes Of The World
TTITLE3=Drums
TTITLE4=Space
TTITLE5=Not Fade Away
TTITLE6=Stella Blue
TTITLE7=Sugar Magnolia
TTITLE8=Brokedown Palace
EXTD=
EXTT0=
EXTT1=
EXTT2=
EXTT3=
EXTT4=
EXTT5=
EXTT6=
EXTT7=
EXTT8=
PLAYORDER=
